<svg id="Layer_1" fill="#e4ecf2" xmlns="http://www.w3.org/2000/svg" viewBox="0 0 206.1 223.3"><style>.st0{fill:#e4ecf2}</style><path class="st0" d="M81.3 164.4c-11.3 0-23.1-1.3-35.4-3.8-2-.4-3.3-2.4-2.9-4.4.4-2 2.4-3.3 4.4-2.9 42.2 8.7 76.8 2.2 103-19.1 30.4-24.8 47.5-69.6 48.2-126.3C177.8 7 70.9 5.3 33.4 54.6c-15.1 19.8-17.2 46-6.1 77.7.7 2-.4 4.1-2.3 4.8-1.9.7-4.1-.4-4.8-2.3C8.3 100.5 10.7 72 27.4 50 71.3-7.6 197.2.2 202.6.5c2 .1 3.5 1.8 3.5 3.7 0 60.7-18.1 108.9-50.9 135.7-19.9 16.3-45.1 24.5-73.9 24.5z"/><path class="st0" d="M14 223.3h-2.9c-7.3-.2-9.7-4.7-10.6-7.4C-6 194.1 45.9 125.1 116 74.8l1.2-.9c1.7-1.2 4-.8 5.2.9 1.2 1.7.8 4-.9 5.2 0 0-.1 0-.1.1-74.3 53-77.5 91.9-79.4 115.2-1.4 17.7-3.5 28-28 28zm33.4-77c-28 31.4-42.4 58.3-39.7 67.3.2.8.6 2 3.6 2.1 21.6.7 21.9-4.4 23.2-21.1 1.1-12.1 2.4-28.4 12.9-48.3z"/></svg>