<?xml version="1.0" encoding="utf-8"?>
<!-- Generator: Adobe Illustrator 19.1.0, SVG Export Plug-In . SVG Version: 6.00 Build 0)  -->
<svg version="1.1" id="Layer_1" xmlns="http://www.w3.org/2000/svg" xmlns:xlink="http://www.w3.org/1999/xlink" x="0px" y="0px"
	 viewBox="-305.5 277.6 87.1 59.5" style="enable-background:new -305.5 277.6 87.1 59.5;" xml:space="preserve">
<style type="text/css">
	.st0{fill:#fff;}
</style>
<g>
	<path class="st0" d="M-221.8,310.6h-81.4c-1.3,0-2.4-1.5-2.4-3.2c0-1.8,1-3.2,2.4-3.2h81.4c1.3,0,2.4,1.4,2.4,3.2
		C-219.4,309.1-220.4,310.6-221.8,310.6z"/>
</g>
<g>
	<path class="st0" d="M-249.1,337.1c-0.8,0-1.6-0.3-2.3-0.9c-1.3-1.3-1.3-3.3,0-4.5l24.3-24.3l-24.3-24.3c-1.3-1.3-1.3-3.3,0-4.5
		c1.3-1.3,3.3-1.3,4.5,0l26.5,26.5c1.3,1.3,1.3,3.3,0,4.5l-26.4,26.6C-247.5,336.8-248.3,337.1-249.1,337.1z"/>
</g>
</svg>
