<?xml version="1.0" encoding="utf-8"?>
<!-- Generator: Adobe Illustrator 19.1.0, SVG Export Plug-In . SVG Version: 6.00 Build 0)  -->
<svg version="1.1" id="Layer_1" fill="#e4ecf2" xmlns="http://www.w3.org/2000/svg" xmlns:xlink="http://www.w3.org/1999/xlink" x="0px" y="0px"
	 viewBox="0 0 206.1 223.3" style="enable-background:new 0 0 206.1 223.3;" xml:space="preserve">
<style type="text/css">
	.st0{fill:#e4ecf2;}
</style>
<g>
	<g>
		<path class="st0" d="M81.3,164.4c-11.3,0-23.1-1.3-35.4-3.8c-2-0.4-3.3-2.4-2.9-4.4c0.4-2,2.4-3.3,4.4-2.9
			c42.2,8.7,76.8,2.2,103-19.1c30.4-24.8,47.5-69.6,48.2-126.3C177.8,7,70.9,5.3,33.4,54.6c-15.1,19.8-17.2,46-6.1,77.7
			c0.7,2-0.4,4.1-2.3,4.8c-1.9,0.7-4.1-0.4-4.8-2.3C8.3,100.5,10.7,72,27.4,50C71.3-7.6,197.2,0.2,202.6,0.5c2,0.1,3.5,1.8,3.5,3.7
			c0,60.7-18.1,108.9-50.9,135.7C135.3,156.2,110.1,164.4,81.3,164.4z"/>
	</g>
	<g>
		<path class="st0" d="M14,223.3c-0.9,0-1.9,0-2.9,0c-7.3-0.2-9.7-4.7-10.6-7.4C-6,194.1,45.9,125.1,116,74.8
			c0.4-0.3,0.8-0.6,1.2-0.9l0,0c1.7-1.2,4-0.8,5.2,0.9c1.2,1.7,0.8,4-0.9,5.2c0,0-0.1,0-0.1,0.1C47.1,133.1,43.9,172,42,195.3
			C40.6,213,38.5,223.3,14,223.3z M47.4,146.3C19.4,177.7,5,204.6,7.7,213.6c0.2,0.8,0.6,2,3.6,2.1c21.6,0.7,21.9-4.4,23.2-21.1
			C35.6,182.5,36.9,166.2,47.4,146.3z"/>
	</g>
</g>
</svg>
